<?xml version="1.0" standalone="no"?><!DOCTYPE svg PUBLIC "-//W3C//DTD SVG 1.1//EN" "http://www.w3.org/Graphics/SVG/1.1/DTD/svg11.dtd"><svg t="1551857217195" class="icon" style="" viewBox="0 0 4096 1024" version="1.1" xmlns="http://www.w3.org/2000/svg" p-id="3295" xmlns:xlink="http://www.w3.org/1999/xlink" width="512" height="128"><defs><style type="text/css"></style></defs><path d="M2266.453333 849.92c126.293333-3.413333 170.666667-92.16 170.666667-167.253333V221.866667h17.066667l17.066666-68.266667H2099.2l17.066667 68.266667h252.586666v453.973333c0 64.853333-47.786667 109.226667-119.466666 109.226667l17.066666 64.853333z" fill="#515151" p-id="3296"></path><path d="M2280.106667 692.906667c17.066667-17.066667 23.893333-40.96 23.893333-81.92V283.306667h-201.386667V716.8h112.64c27.306667 0 51.2-6.826667 64.853334-23.893333z m-105.813334-51.2v-290.133334h61.44v252.586667c0 27.306667-10.24 37.546667-34.133333 37.546667h-27.306667zM1819.306667 146.773333v699.733334h68.266666V221.866667h85.333334l-51.2 218.453333c20.48 17.066667 58.026667 61.44 58.026666 139.946667s-44.373333 105.813333-58.026666 112.64v71.68c37.546667-3.413333 133.12-54.613333 133.12-180.906667 0-75.093333-27.306667-129.706667-51.2-163.84l61.44-273.066667h-245.76zM2604.373333 778.24l-13.653333 68.266667h621.226667l-17.066667-68.266667H2935.466667v-88.746667h238.933333l-17.066667-68.266666H2935.466667v-88.746667h160.426666c75.093333 0 116.053333-37.546667 116.053334-116.053333v-273.066667H2590.72v385.706667h273.066667V614.4h-221.866667l-17.066667 68.266667h238.933334v92.16h-259.413334zM2935.466667 378.88h163.84l-17.066667-68.266667H2935.466667V221.866667h204.8v194.56c0 34.133333-13.653333 47.786667-40.96 47.786666H2935.466667v-85.333333z m-269.653334 85.333333V221.866667H2867.2V307.2h-146.773333l-17.066667 68.266667H2867.2v88.746666h-201.386667zM3884.373333 146.773333H3396.266667L3379.2 221.866667h525.653333zM3368.96 843.093333l-3.413333 6.826667h477.866666c27.306667 0 47.786667-6.826667 61.44-23.893333 13.653333-20.48 10.24-44.373333 3.413334-58.026667-6.826667-34.133333-34.133333-157.013333-40.96-174.08v-3.413333h-71.68l3.413333 6.826666c3.413333 17.066667 34.133333 143.36 40.96 184.32h-382.293333c17.066667-81.92 47.786667-218.453333 64.853333-286.72h430.08l-17.066667-68.266666H3348.48l-17.066667 68.266666h119.466667c-13.653333 61.44-58.026667 235.52-81.92 348.16z" fill="#515151" p-id="3297"></path><path d="M426.666667 747.52c-30.72-6.826667-51.2-30.72-51.2-64.853333V337.92c3.413333-30.72 23.893333-54.613333 51.2-61.44l320.853333-68.266667 34.133333-136.533333H409.6c-133.12-3.413333-238.933333 102.4-238.933333 232.106667v409.6c0 129.706667 109.226667 238.933333 238.933333 238.933333h372.053333l-34.133333-136.533333-320.853333-68.266667zM1361.92 68.266667h-375.466667l34.133334 136.533333 320.853333 68.266667c30.72 6.826667 51.2 30.72 51.2 61.44v344.746666c-3.413333 30.72-23.893333 54.613333-51.2 61.44l-320.853333 68.266667-34.133334 136.533333h375.466667c129.706667 0 238.933333-105.813333 238.933333-238.933333v-409.6c-3.413333-122.88-109.226667-228.693333-238.933333-228.693333z" fill="#515151" p-id="3298"></path><path d="M747.52 491.52h273.066667v34.133333h-273.066667z" fill="#515151" p-id="3299"></path></svg>