<?xml version="1.0" standalone="no"?><!DOCTYPE svg PUBLIC "-//W3C//DTD SVG 1.1//EN" "http://www.w3.org/Graphics/SVG/1.1/DTD/svg11.dtd"><svg t="1554180896849" class="icon" style="" viewBox="0 0 1024 1024" version="1.1" xmlns="http://www.w3.org/2000/svg" p-id="34801" xmlns:xlink="http://www.w3.org/1999/xlink" width="128" height="128"><defs><style type="text/css"></style></defs><path d="M856.7 644.9c-25.4-27-56.5-45.9-90.9-58.2 12.3-7.4 23.8-16.4 33.6-27 25.4-27 39.3-63.1 39.3-99.9 0-77.8-60.6-141.7-138.4-146.6-9-0.8-16.4 5.7-16.4 14.7-0.8 9 5.7 16.4 14.7 16.4 60.6 3.3 109 54.1 109 115.5 0 59.8-46.7 110.6-106.5 114.7h-12.3c-19.7-16.4-41.8-29.5-65.5-40.1-7.4-3.3-15.6-5.7-22.9-8.2 14.7-7.4 27.9-17.2 39.3-29.5 32-31.9 49.2-73.7 49.2-118.8 0-45.1-17.2-86.8-49.2-118.8-31.9-31.9-73.7-49.2-118.8-49.2-45.1 0-86.8 17.2-118.8 49.2-31.9 31.9-49.2 73.7-49.2 118.8 0 45.1 17.2 86.8 49.2 118.8 11.5 11.5 25.4 22.1 39.3 29.5-7.4 2.5-15.6 4.9-22.9 8.2-23.8 9.8-45.9 23.8-65.5 40.1h-18.8c-59.8-4.9-106.5-54.9-106.5-114.7 0-60.6 47.5-111.4 109-115.5 9-0.8 15.6-8.2 14.7-16.4-0.8-9-8.2-15.6-16.4-14.7-77.8 4.1-138.4 68.8-138.4 146.6 0 37.7 13.9 72.9 39.3 99.9 9.8 10.7 21.3 19.7 33.6 27-34.4 11.5-65.5 31.1-90.9 58.2C139.9 687.5 117 743.2 117 803c0 9 7.4 15.6 15.6 15.6h62.3c9 0 15.6-7.4 15.6-15.6s-7.4-15.6-15.6-15.6H149c7.4-93.4 79.5-167.9 172-179.4-17.2 20.5-31.1 42.6-41 67.2-13.9 31.9-20.5 66.4-20.5 102.4 0 9 7.4 15.6 15.6 15.6 9 0 15.6-7.4 15.6-15.6 0-123.7 98.3-225.3 220.4-230.2h21.3c53.2 2.5 101.6 22.9 139.3 54.9l0.8 0.8 0.8 0.8 0.8 0.8h0.8c47.5 42.6 77.8 104 77.8 172.9 0 9 7.4 15.6 15.6 15.6 9 0 15.6-7.4 15.6-15.6 0-35.2-6.6-69.6-20.5-102.4-9.8-23.8-23.8-45.9-40.1-65.5 89.3 13.9 158.1 87.7 164.7 178.6h-46c-9 0-15.6 7.4-15.6 15.6s7.4 15.6 15.6 15.6h62.3c9 0 15.6-7.4 15.6-15.6-0.1-60.7-22.2-116.4-63.2-159zM531.5 514.6h-19.7c-70.5-4.9-127-63.9-127-136 0-75.4 61.4-136.8 136.8-136.8s136.8 61.4 136.8 136.8c0.1 72.1-56.5 131.1-126.9 136z m0 0" fill="#0C92F2" p-id="34802"></path><path d="M904.2 828H842c-12.9 0-24.2-11.3-24.2-24.2 0-13.3 10.9-24.2 24.2-24.2h36.4c-4.8-38.5-21.6-75-48.1-103.7-23.2-25.1-53.1-43.4-85.8-52.8 11 15.6 20 32 26.9 48.7 14 33 21.1 68.6 21.1 105.7 0 13.3-10.9 24.2-24.2 24.2-13.3 0-24.2-10.9-24.2-24.2 0-32.3-6.8-63.5-20.3-92.6-12.5-27.1-30.1-51.1-52.2-71.6h-1.1l-4.7-4.7c-38-32.1-84.2-50.3-133.6-52.6h-20.9c-56.9 2.3-110.1 26.4-149.9 67.9-40 41.6-62 96.2-62 153.7 0 13.3-10.9 24.2-24.2 24.2-13.3 0-24.2-10.9-24.2-24.2 0-37.9 7.1-73.5 21.1-105.7 7.2-17.9 16.5-34.8 28.2-51.3-34.6 8.5-66.3 26.7-91 52.4-27.8 28.9-45.6 66.1-50.7 105.8h36.3c12.9 0 24.2 11.3 24.2 24.2 0 13.3-10.9 24.2-24.2 24.2h-62.3c-13.3 0-24.2-10.9-24.2-24.2 0-60.3 22.6-118.5 63.7-163.9l0.1-0.1c22-23.4 48.9-42 78.5-54.4-7.8-5.8-14.9-12.2-21.2-19-26.8-28.5-41.6-66.1-41.6-105.8 0-82.7 64.3-150.8 146.4-155.3 6-0.5 11.9 1.3 16.6 5.2 1.9 1.5 3.5 3.3 4.8 5.4C364.4 292 378 270.9 396 253c33.3-33.3 77.7-51.7 124.9-51.7s91.6 18.4 124.9 51.7c16.5 16.5 29.3 35.7 38.1 56.7 4.7-3.8 10.8-5.6 17.1-5.1 39.8 2.5 76.8 19.8 104 48.7 27.3 28.9 42.4 66.8 42.4 106.6 0 39.7-14.8 77.3-41.7 105.9-6.3 6.9-13.5 13.3-21.4 19.1 30.8 13.2 57.2 31.4 78.7 54.2 21.1 22 37.5 47.4 48.7 75.5 11.1 28.1 16.8 58.1 16.8 89.4-0.1 13.2-10.9 24-24.3 24zM842 796.9c-4.3 0-6.9 3.6-6.9 6.9 0 3.4 3.5 6.9 6.9 6.9h62.3c4.3 0 6.9-3.6 6.9-6.9 0-29.1-5.2-57-15.6-83-10.3-26-25.5-49.5-45.1-69.9l-0.1-0.1c-23.1-24.6-52.6-43.5-87.5-55.9l-17.2-6.1 15.7-9.4c12.1-7.3 22.8-15.9 31.7-25.5 23.6-25.1 37-59.3 37-94.1 0-35.4-13.4-69-37.7-94.7-24.3-25.7-57.2-41.1-92.7-43.3h-0.2c-2-0.2-3.8 0.4-5.1 1.5-0.9 0.8-1.9 2.2-1.9 4.6v0.8c-0.2 2 0.4 3.8 1.5 5.1 0.8 0.9 2.2 1.9 4.6 1.9h0.5c31.6 1.7 61.1 15.4 83 38.6 22 23.3 34.1 53.6 34.1 85.5 0 64.7-50.3 118.9-114.5 123.3h-16l-2.4-2c-18.2-15.2-39-27.9-63.5-38.9-5.5-2.4-11.7-4.5-17.6-6.4l-4.5-1.5-19.8-6.6 18.7-9.3c13.7-6.9 26.2-16.2 36.9-27.7l0.2-0.2c30.1-30.1 46.6-70.1 46.6-112.7 0-42.6-16.6-82.6-46.6-112.7-30.1-30.1-70.1-46.6-112.7-46.6-42.6 0-82.6 16.6-112.7 46.6-30.1 30.1-46.6 70.1-46.6 112.7 0 42.6 16.6 82.6 46.6 112.7 11.3 11.3 24.5 21.2 37.3 28l17.8 9.4-19.2 6.4-4.5 1.5c-6 1.9-12.1 4-17.7 6.4l-0.2 0.1c-22.1 9.1-43.4 22.2-63.3 38.8l-2.4 2h-22.7c-31.1-2.6-60-16.6-81.3-39.5-21.4-23-33.1-52.7-33.1-83.8 0-65.2 51.3-119.7 116.9-124.1 2.2-0.2 4.2-1.2 5.5-2.8 0.7-0.9 1.5-2.3 1.3-4.1-0.2-2.3-1.2-4.4-2.8-5.7-0.9-0.7-2.3-1.5-4.1-1.3h-0.4c-73 3.8-130.3 64.5-130.3 138 0 35.2 13.1 68.6 37 94 8.9 9.7 19.6 18.3 31.7 25.5l16.1 9.7-17.8 5.9c-33.7 11.2-63 30-87.3 55.8C146.6 693 125.6 747 125.6 803c0 4.3 3.6 6.9 6.9 6.9h62.3c4.3 0 6.9-3.6 6.9-6.9 0-3.4-3.5-6.9-6.9-6.9h-55.2l0.7-9.3c3.7-47.1 23.8-91.7 56.4-125.7 32.6-33.9 76.3-55.8 123.1-61.6l21.8-2.7-14.1 16.8c-17.5 20.8-30.4 42-39.6 64.8l-0.1 0.2c-13.1 30.1-19.8 63.4-19.8 99 0 4.3 3.6 6.9 6.9 6.9 4.3 0 6.9-3.6 6.9-6.9 0-61.9 23.7-120.8 66.8-165.6 43-44.7 100.4-70.7 161.8-73.2h22c53.5 2.5 103.4 22.2 144.4 56.9l0.4 0.4h0.5l2.5 2.2c25.1 22.5 44.9 49.2 58.8 79.4 14.5 31.5 21.9 65.1 21.9 99.9 0 4.3 3.6 6.9 6.9 6.9 4.3 0 6.9-3.6 6.9-6.9 0-34.8-6.7-68.1-19.8-99-9.2-22.2-22.2-43.5-38.8-63.4l-14.7-17.6 22.6 3.5c45.2 7.1 87.2 29.5 118.4 63.1 31.2 33.8 50.3 77.6 53.6 123.4l0.7 9.3H842zM691.9 565.8h8.9c55.1-3.9 98.2-50.4 98.2-106.1 0-27.4-10.4-53.6-29.4-73.6-18.8-19.9-44.1-31.7-71.2-33.2-0.9 0-1.8-0.1-2.7-0.2 1.2 8.3 1.8 16.6 1.8 25.1 0 47.2-18.3 91.5-51.6 124.8-7.6 8.1-15.9 15.3-24.9 21.4 2 0.8 3.9 1.5 5.8 2.4 24.5 11 46.4 24.3 65.1 39.4z m-357.5 0h15.4c20.5-16.7 42.5-30 65.2-39.4 2-0.9 4.1-1.7 6.2-2.5-8.8-6.1-17.5-13.3-25.2-21.1-33.3-33.3-51.7-77.7-51.7-124.9 0-9.3 0.7-18.5 2.1-27.5-2.8 1.4-5.9 2.2-9.1 2.5h-0.2c-56.6 3.8-100.9 50.7-100.9 106.9 0 26.7 10.1 52.3 28.5 72 18.3 19.7 43 31.7 69.7 34z m197.4-42.5h-20.6c-75.7-5.3-135-68.8-135-144.6 0-80.2 65.2-145.4 145.4-145.4S667 298.5 667 378.7c0 75.8-59.3 139.3-135 144.6h-0.2zM512.1 506h19c66.6-4.8 118.6-60.7 118.6-127.4 0-70.7-57.5-128.2-128.2-128.2-70.7 0-128.2 57.5-128.2 128.2 0.2 66.7 52.3 122.6 118.8 127.4z" fill="#0C92F2" p-id="34803"></path><path d="M557 590.1h-77.3l21.6 38.6-21.6 120.5 38.6 41.7 38.6-41.7-21.6-120.5 21.7-38.6z m0 0" fill="#8AD8FF" p-id="34804"></path><path d="M565 431.9c-11.2 11.8-26.3 18.3-42.6 18.3s-31.4-6.5-42.6-18.3c-3.2-3.4-8.5-3.5-11.9-0.3-3.4 3.2-3.5 8.5-0.3 11.8 14.4 15.2 33.9 23.6 54.8 23.6s40.4-8.4 54.8-23.6c3.2-3.4 3-8.7-0.3-11.8-3.4-3.2-8.7-3-11.9 0.3z" fill="#8AD8FF" p-id="34805"></path></svg>