<?xml version="1.0" standalone="no"?><!DOCTYPE svg PUBLIC "-//W3C//DTD SVG 1.1//EN" "http://www.w3.org/Graphics/SVG/1.1/DTD/svg11.dtd"><svg t="1554181505252" class="icon" style="" viewBox="0 0 1024 1024" version="1.1" xmlns="http://www.w3.org/2000/svg" p-id="10299" xmlns:xlink="http://www.w3.org/1999/xlink" width="128" height="128"><defs><style type="text/css"></style></defs><path d="M512 1024C229.24288 1024 0 794.75712 0 512S229.24288 0 512 0s512 229.24288 512 512-229.24288 512-512 512" fill="#ffffff" p-id="10300"></path><path d="M554.67008 725.32992h-85.34016L486.4 584.78592h51.2z" fill="#72C2FF" p-id="10301"></path><path d="M355.38944 324.27008a42.71104 42.71104 0 0 0-42.67008 42.65984v149.59616a42.71104 42.71104 0 0 0 42.67008 42.65984h313.22112a42.7008 42.7008 0 0 0 42.67008-42.65984V366.92992a42.7008 42.7008 0 0 0-42.65984-42.65984H355.38944z m313.22112 286.11584H355.38944c-51.7632 0-93.87008-42.11712-93.87008-93.85984V366.92992c0-51.74272 42.10688-93.85984 93.87008-93.85984h313.22112c51.75296 0 93.87008 42.11712 93.87008 93.85984v149.59616c0 51.74272-42.11712 93.85984-93.85984 93.85984z" fill="#1584ED" p-id="10302"></path><path d="M275.07712 750.92992h473.856v-51.2H275.07712z" fill="#3399ff" p-id="10303"></path><path d="M923.66848 443.72992H597.34016v-51.2h219.8016l-34.99008-43.7248 39.96672-32z" fill="#72C2FF" p-id="10304"></path><path d="M443.72992 494.92992H100.33152l101.55008-126.9248 39.96672 32-34.97984 43.7248h236.86144zM648.52992 418.12992a42.65984 42.65984 0 1 1-85.32992 0 42.65984 42.65984 0 1 1 85.32992 0" fill="#1584ED" p-id="10305"></path><path d="M477.87008 469.32992a42.65984 42.65984 0 1 1-85.34016 0 42.65984 42.65984 0 1 1 85.34016 0" fill="#72C2FF" p-id="10306"></path></svg>