<?xml version="1.0" standalone="no"?><!DOCTYPE svg PUBLIC "-//W3C//DTD SVG 1.1//EN" "http://www.w3.org/Graphics/SVG/1.1/DTD/svg11.dtd"><svg t="1554181920287" class="icon" style="" viewBox="0 0 1024 1024" version="1.1" xmlns="http://www.w3.org/2000/svg" p-id="16390" xmlns:xlink="http://www.w3.org/1999/xlink" width="128" height="128"><defs><style type="text/css"></style></defs><path d="M512 512m-512 0a512 512 0 1 0 1024 0 512 512 0 1 0-1024 0Z" fill="#ffffff" p-id="16391"></path><path d="M514.048 560.128c-9.216 0-18.432-2.048-26.112-6.144L271.872 438.784c-9.728-5.12-15.36-13.312-15.36-22.528S262.144 399.36 271.36 394.24l211.968-115.2c14.848-8.192 37.376-8.192 52.224 0L751.616 394.24c9.728 5.12 15.36 13.312 15.36 22.528s-5.632 16.896-14.848 22.016l-211.968 115.2c-7.68 4.096-16.896 6.144-26.112 6.144z m-13.824-29.184c7.168 3.584 20.48 3.584 27.648 0l210.944-114.176-215.04-114.176c-7.168-3.584-20.48-3.584-27.648 0L285.696 416.768l214.528 114.176z" fill="#339fff" p-id="16392"></path><path d="M514.048 652.8c-9.216 0-18.432-2.048-26.112-6.144l-216.064-115.2c-6.656-3.584-8.704-11.264-5.632-17.92 3.584-6.656 11.264-8.704 17.92-5.632l216.064 115.2c7.168 3.584 20.48 3.584 27.648 0l211.968-115.2c6.656-3.584 14.336-1.024 17.92 5.12 3.584 6.656 1.024 14.336-5.12 17.92l-211.968 115.2c-8.192 4.608-17.408 6.656-26.624 6.656z" fill="#339fff" p-id="16393"></path><path d="M514.048 751.104c-9.216 0-18.432-2.048-26.112-6.144L271.872 629.76c-6.656-3.584-8.704-11.264-5.632-17.92 3.584-6.656 11.264-8.704 17.92-5.632l216.064 115.2c7.168 3.584 20.48 3.584 27.648 0l211.968-115.2c6.656-3.584 14.336-1.024 17.92 5.12s1.024 14.336-5.12 17.92l-211.968 115.2c-8.192 4.608-17.408 6.656-26.624 6.656z" fill="#339fff" p-id="16394"></path></svg>