<?xml version="1.0" standalone="no"?><!DOCTYPE svg PUBLIC "-//W3C//DTD SVG 1.1//EN" "http://www.w3.org/Graphics/SVG/1.1/DTD/svg11.dtd"><svg t="1554181993425" class="icon" style="" viewBox="0 0 1024 1024" version="1.1" xmlns="http://www.w3.org/2000/svg" p-id="20247" xmlns:xlink="http://www.w3.org/1999/xlink" width="128" height="128"><defs><style type="text/css"></style></defs><path d="M530.06005953 235.70697116a108.99303458 108.99303458 0 0 1 46.19981796 89.10683835 109.22309901 109.22309901 0 0 1-109.22309902 109.22309904c-6.16860313 0-12.17903696-0.63267727-18.06005949-1.61045117 17.81561604 12.62478685 39.52794881 5.73723231 63.02328102 5.73723228 20.08750257 0 38.89527158 8.95813463 55.05729936-0.48888697a109.1943409 109.1943409 0 0 0 54.16579965-94.35518372c0-54.1514206-39.45605369-98.98523085-91.16303948-107.61264781z" fill="#DDEBFF" p-id="20248"></path><path d="M641.41125472 448.43031587H382.58874528a14.37902829 14.37902829 0 0 1 0-28.7580566h258.82250944a14.37902829 14.37902829 0 0 1 0 28.7580566z" fill="#3399FF" p-id="20249"></path><path d="M588.09381776 448.50221104a14.36464926 14.36464926 0 0 1-9.51891675-25.14892053 100.76823038 100.76823038 0 0 0 34.07829712-75.48989861c0-55.50304926-45.15014889-100.65319813-100.65319813-100.65319811s-100.65319813 45.15014889-100.65319813 100.65319811c0 28.81557273 12.38034335 56.30827484 33.9920229 75.41800347a14.37902829 14.37902829 0 1 1-19.06659154 21.53978441A129.56942406 129.56942406 0 0 1 382.58874528 347.8490129c0-71.34873842 58.06251629-129.41125472 129.41125472-129.41125476s129.41125472 58.06251629 129.41125472 129.41125476a129.51190794 129.51190794 0 0 1-43.79852019 97.05844103c-2.73201538 2.40129772-6.13984509 3.59475707-9.51891677 3.59475711z" fill="#3399FF" p-id="20250"></path><path d="M680.04770379 408.01086734s64.89255477 90.97611206 9.54767478 173.8568312c-40.05997284 60.00368509-120.07926534 93.49244202-250.97156001 87.62579847-14.49406052-0.64705628-45.1070118-1.58169313-63.21020841-4.29932947-25.32146885-3.79606345-56.15010556-10.07969887-102.10548-27.52146016l55.73311373 62.76445855L382.58874528 722.95472421l12.20779501 47.46517249h53.10175154l22.53193734-37.01161887 82.07549355-1.61045116 17.01039047 38.62207003h56.20762164l15.68751989-45.06387476 76.84152725-41.84297233 37.3998526-65.16575629 14.37902832-62.82197465-14.37902832-68.3291425-62.34746671-71.60756095-13.25746407-7.57774788z" fill="#DDEBFF" p-id="20251"></path><path d="M357.79930045 500.09416458m-28.75805657 0a28.75805662 28.75805662 0 1 0 57.5161132 0 28.75805662 28.75805662 0 1 0-57.5161132 0Z" fill="#3399FF" p-id="20252"></path><path d="M627.03222645 787.66035159h-57.51611326a14.37902829 14.37902829 0 0 1-13.64569783-9.83525536l-11.10060982-33.30182956H479.21581547l-11.10060984 33.30182956a14.37902829 14.37902829 0 0 1-13.64569786 9.83525536h-57.51611324a14.37902829 14.37902829 0 0 1-13.78948813-10.30976327l-12.12152089-41.03774678a186.84109379 186.84109379 0 0 1-111.03485656-92.45715198h-19.5267204c-23.78291282 0-43.13708489-19.35417209-43.13708491-43.13708493v-86.27416982c0-23.78291282 19.35417209-43.13708489 43.13708491-43.13708491h19.54109947a188.27899662 188.27899662 0 0 1 51.95142925-61.81544267 252.95586592 252.95586592 0 0 0-14.0051736-27.42080698 25.16329952 25.16329952 0 0 1 0.8483627-27.44956504 24.44434813 24.44434813 0 0 1 25.23519466-10.10845692c18.27574498 3.6091361 44.54622971 12.7973352 66.04287701 36.04822397a14.37902829 14.37902829 0 1 1-21.12279259 19.51234141c-13.21432699-14.29275414-29.03125817-21.58292148-42.04427875-25.32146885a327.62615991 327.62615991 0 0 1 16.34895521 35.02731298 14.37902829 14.37902829 0 0 1-8.87186048 18.85090607 159.70786737 159.70786737 0 0 0-51.57757453 61.32655577 14.2639961 14.2639961 0 0 1-13.6025608 10.09407784h-28.7580566c-7.9228446 0-14.37902829 6.45618373-14.37902833 14.37902829v86.27416983c0 7.9228446 6.45618373 14.37902829 14.37902833 14.37902831h28.7580566a14.37902829 14.37902829 0 0 1 13.9188994 10.76989219c20.13063964 41.64166594 58.46512908 73.27552825 103.05449587 84.85064604a14.37902829 14.37902829 0 0 1 10.18035205 9.84963439l11.33067428 38.32011039h36.40769966l9.47577964-28.45609701v-0.30195956a14.37902829 14.37902829 0 0 1 14.37902832-14.3790283H555.13708489a14.37902829 14.37902829 0 0 1 13.64569787 9.83525533l11.10060988 33.30182954h35.94757075l9.53329577-37.75932829a14.37902829 14.37902829 0 0 1 13.94765744-10.85616636h0.23006445A158.34185967 158.34185967 0 0 0 756.44348119 557.58151973c0-77.40230934-57.73179865-144.62426669-134.27136635-156.35755376a14.37902829 14.37902829 0 1 1 4.3568456-28.42733898c90.45846704 13.89014134 158.6725773 93.33427274 158.67257732 184.79927179a187.11429534 187.11429534 0 0 1-134.15633406 179.30648293l-10.06531983 39.90180354a14.39340733 14.39340733 0 0 1-13.94765742 10.85616634z" fill="#3399FF" p-id="20253"></path><path d="M770.03166289 555.5396977a14.37902829 14.37902829 0 0 1 0-28.75805658c36.03384491 0 42.96453655-18.3763982 43.23773813-19.1528657 2.60260413-7.33330445 10.58296481-11.48884357 18.03130151-9.10192497 7.40519959 2.38691868 11.64701291 10.0078037 9.47577962 17.48489844-0.47450794 1.61045118-12.15027893 39.52794881-70.74481926 39.52794881z" fill="#3399FF" p-id="20254"></path><path d="M555.13708489 343.31961897h-86.27416978a14.37902829 14.37902829 0 0 1 0-28.75805659h86.27416978a14.37902829 14.37902829 0 0 1 0 28.75805659zM555.13708489 386.4567039h-86.27416978a14.37902829 14.37902829 0 0 1 0-28.75805665h86.27416978a14.37902829 14.37902829 0 0 1 0 28.75805665z" fill="#3399FF" p-id="20255"></path><path d="M512 429.59378878a14.37902829 14.37902829 0 0 1-14.37902829-14.37902827v-86.27416986a14.37902829 14.37902829 0 0 1 28.75805658 0v86.27416986a14.37902829 14.37902829 0 0 1-14.37902829 14.37902827z" fill="#3399FF" p-id="20256"></path><path d="M512 343.31961897a14.33589121 14.33589121 0 0 1-10.16597301-4.21305528l-40.67827112-40.67827107a14.36464926 14.36464926 0 1 1 20.33194608-20.33194603L512 308.60864464l30.51229805-30.51229805a14.36464926 14.36464926 0 1 1 20.33194608 20.33194603l-40.67827112 40.67827107a14.33589121 14.33589121 0 0 1-10.16597301 4.21305528z" fill="#3399FF" p-id="20257"></path></svg>