<?xml version="1.0" standalone="no"?><!DOCTYPE svg PUBLIC "-//W3C//DTD SVG 1.1//EN" "http://www.w3.org/Graphics/SVG/1.1/DTD/svg11.dtd"><svg t="1554168142289" class="icon" style="" viewBox="0 0 1024 1024" version="1.1" xmlns="http://www.w3.org/2000/svg" p-id="2123" xmlns:xlink="http://www.w3.org/1999/xlink" width="128" height="128"><defs><style type="text/css"></style></defs><path d="M277.3 135.2h578.9v615.3H277.3z" fill="#f1f1f1" p-id="2124"></path><path d="M166.9 518c-14.8 0-26.8-12-26.8-26.8v-41.3c0-14.8 12-26.8 26.8-26.8s26.8 12 26.8 26.8v41.3c0.1 14.8-12 26.8-26.8 26.8z" fill="#3788FF" p-id="2125"></path><path d="M856.2 777.4H166.9c-14.8 0-26.8-12-26.8-26.8V578.4c0-14.8 12-26.8 26.8-26.8s26.8 12 26.8 26.8v145.4h635.6V162H193.8v196.2c0 14.8-12 26.8-26.8 26.8s-26.8-12-26.8-26.8v-223c0-14.8 12-26.8 26.8-26.8h689.3c14.8 0 26.8 12 26.8 26.8v615.3c-0.1 14.8-12.1 26.9-26.9 26.9z" fill="#3788FF" p-id="2126"></path><path d="M926.5 162H96.7c-14.8 0-26.8-12-26.8-26.8s12-26.8 26.8-26.8h829.8c14.8 0 26.8 12 26.8 26.8s-12 26.8-26.8 26.8zM374.5 916.4c-5.8 0-11.7-1.9-16.7-5.8-11.6-9.2-13.5-26.1-4.3-37.7l102.8-129.4c9.2-11.6 26.1-13.5 37.7-4.3 11.6 9.2 13.5 26.1 4.3 37.7L395.5 906.3c-5.3 6.7-13.1 10.1-21 10.1zM648.6 916.4c-7.9 0-15.7-3.5-21-10.1L524.8 776.9c-9.2-11.6-7.3-28.5 4.3-37.7 11.6-9.2 28.5-7.3 37.7 4.3L669.6 873c9.2 11.6 7.3 28.5-4.3 37.7-4.9 3.8-10.8 5.7-16.7 5.7z" fill="#3788FF" p-id="2127"></path><path d="M267.6 581.4c-5.7 0-11.5-1.8-16.4-5.6-11.7-9.1-13.9-25.9-4.8-37.6L374.9 372c8.3-10.7 23.2-13.5 34.8-6.7l170 100 157.1-153.4c10.6-10.4 27.6-10.1 37.9 0.5 10.4 10.6 10.1 27.6-0.5 37.9L602.5 518c-8.7 8.5-21.9 10.1-32.3 3.9l-167.3-98.4L288.8 571c-5.3 6.9-13.2 10.4-21.2 10.4z" fill="#3788FF" p-id="2128"></path></svg>