<?xml version="1.0" standalone="no"?><!DOCTYPE svg PUBLIC "-//W3C//DTD SVG 1.1//EN" "http://www.w3.org/Graphics/SVG/1.1/DTD/svg11.dtd"><svg t="1554168162593" class="icon" style="" viewBox="0 0 1024 1024" version="1.1" xmlns="http://www.w3.org/2000/svg" p-id="2414" xmlns:xlink="http://www.w3.org/1999/xlink" width="128" height="128"><defs><style type="text/css"></style></defs><path d="M467.456 62.976s-346.624 46.08-406.016 409.6c0 0 165.376 165.376 421.376 215.552 0-1.024-0.512-2.56-0.512-4.096 0-14.848 12.288-27.136 27.136-27.136s27.136 12.288 27.136 27.136c0 4.608-1.024 8.704-3.072 12.288 85.504 10.752 179.712 8.192 280.064-17.408 0.512 0.512-325.632-170.496-346.112-615.936zM318.464 327.68c-14.848 0-27.136-12.288-27.136-27.136s12.288-27.136 27.136-27.136 27.136 12.288 27.136 27.136-11.776 27.136-27.136 27.136z" fill="#BAD4FF" p-id="2415"></path><path d="M509.952 51.712c-254.464 0-460.8 206.336-460.8 460.8s206.336 460.8 460.8 460.8 460.8-206.336 460.8-460.8-206.336-460.8-460.8-460.8z m142.848 56.832h0.512c34.816 11.776 65.536 26.624 92.16 45.056l1.024 0.512v16.384c0 45.568-4.096 88.576-12.8 130.56l-0.512 1.536-1.536 0.512c-29.184 6.656-49.152 30.72-49.152 59.392 0 17.92 6.656 33.792 18.432 43.008l1.536 1.024-1.024 1.536c-13.824 31.744-29.184 67.584-51.2 100.864l-2.048 2.56-2.048-2.56c-81.92-93.184-135.168-207.36-154.112-330.24l-0.512-1.536 1.536-1.024c51.2-30.72 104.448-53.76 158.208-68.608l1.536 1.024zM771.584 363.52c0 14.848-12.288 27.136-27.136 27.136s-27.136-12.288-27.136-27.136 12.288-27.136 27.136-27.136 27.136 12.288 27.136 27.136z m-202.24 305.664l-1.024-1.536 1.536-1.536c26.112-24.576 53.248-54.272 82.432-91.136l1.536-2.048 2.048 2.048c41.472 38.912 81.408 69.632 123.392 93.184l6.144 3.584-6.656 1.536c-44.544 8.704-91.136 12.8-141.312 12.8-10.752 0-21.504-0.512-32.256-1.024-10.24-0.512-20.992-1.024-31.744-1.024h-2.56v-3.072c0.512-4.096 0.512-8.192-1.536-11.776zM486.4 86.016l1.536-0.512c6.656-2.048 15.36-2.048 22.016-2.048 23.552 0 47.616 2.048 71.168 6.144l8.704 1.536-15.872 6.656c-26.624 11.776-54.784 23.552-81.408 36.864l-3.072 1.536-0.512-3.584C486.4 117.76 486.4 102.4 486.4 88.064v-2.048z m-28.16 116.736l0.512 4.096c23.04 124.416 80.896 240.64 167.936 335.872l1.536 1.536-1.024 1.536c-20.992 28.672-45.568 56.32-76.8 88.064l-1.536 1.536-1.536-1.536c-10.24-8.192-22.016-12.288-36.864-12.288-26.624 0-49.152 15.872-57.344 40.96l-0.512 2.048-2.048-0.512c-90.112-22.528-170.496-55.296-239.104-98.304l-1.536-1.024 0.512-2.048c18.944-71.68 50.176-139.264 92.16-201.728l0.512-1.024h1.536c2.048 0 4.096 0.512 6.656 1.024s5.12 1.024 8.192 1.024c34.816 0 61.44-26.624 61.44-61.44 0-8.192-2.048-15.36-3.584-23.552l-0.512-2.56 1.024-1.024c23.552-23.552 48.64-45.056 79.36-68.096l1.024-2.56z m78.848 481.792c0 14.848-12.288 27.136-27.136 27.136s-27.136-12.288-27.136-27.136 12.288-27.136 27.136-27.136c14.848-0.512 27.136 11.776 27.136 27.136z m-245.76-384c0-14.848 12.288-27.136 27.136-27.136s27.136 12.288 27.136 27.136-11.776 27.136-27.136 27.136c-14.848 0-27.136-12.288-27.136-27.136z m-126.464 281.088c-9.728 53.76-14.848 101.376-14.848 144.384v19.968l-4.608-7.68c-40.96-68.096-62.464-140.8-64.512-216.576v-5.632l4.608 3.584c25.6 21.504 50.688 42.496 78.336 59.904l1.536 1.024-0.512 1.024z m12.288-43.008l-1.024 3.584-3.072-2.048c-30.208-20.48-57.856-43.008-88.064-70.144l-1.024-1.024v-1.536c21.504-192.512 170.496-347.648 362.496-377.344l3.072-0.512v3.072c0 22.016 2.048 42.496 3.584 64l0.512 5.632-1.024 1.024C415.744 189.44 381.44 217.088 350.72 246.272l-1.536 1.536-1.024-2.048c-9.728-5.632-19.968-8.192-30.72-8.192-34.816 0-61.44 26.624-61.44 61.44 0 12.288 4.096 24.064 14.336 38.912l1.024 1.536-1.024 1.536c-43.52 61.44-74.752 128-93.184 197.632z m22.528 268.8l-1.024-0.512c-2.56-1.536-3.584-3.072-4.608-4.608-0.512-1.024-1.024-1.536-2.048-2.048l-1.024-0.512v-1.024c-2.048-23.04-4.096-47.104-4.096-72.704 0-41.984 4.096-82.432 12.8-119.808l1.024-3.584 3.072 1.536c78.848 46.08 161.792 79.36 246.784 97.792l2.048 0.512V705.536s0.512 1.024 1.536 1.536l2.048 2.048-2.56 1.536c-73.728 48.64-158.72 80.896-252.928 96.768H199.68z m684.032-84.992c-75.776 135.168-219.136 219.136-373.76 219.136-100.352 0-195.584-34.816-274.432-100.864l-4.096-3.584 5.12-1.024c87.04-16.384 168.448-50.176 242.176-99.84l1.536-1.024 1.536 1.024c7.68 5.12 17.408 8.192 28.16 8.192 18.432 0 35.328-8.192 49.152-24.576l1.024-1.024h1.536c25.088 2.048 51.2 4.096 76.8 4.096 64.512 0 129.536-7.68 198.144-23.552h1.024l0.512 0.512 16.896 7.68c9.216 4.608 18.432 8.704 28.16 11.776l3.072 1.024-2.56 2.048z m36.352-89.088l-1.024 0.512c-25.6 11.264-50.688 19.968-77.824 25.6h-1.024l-1.024-0.512c-57.856-28.672-114.176-69.12-162.816-117.76l-1.536-1.536 1.024-1.536c25.088-38.912 45.056-80.896 59.904-112.64l0.512-1.536h8.192c34.816 0 61.44-26.624 61.44-61.44 0-23.552-13.312-44.544-34.816-54.784l-2.048-1.024 0.512-2.048c8.704-37.888 12.8-75.776 12.8-116.736v-5.632l4.096 3.584C882.176 268.288 936.96 387.072 936.96 512c0 38.4-5.632 76.288-16.896 119.808v1.536z" fill="#3399FF" p-id="2416"></path></svg>