<?xml version="1.0" standalone="no"?><!DOCTYPE svg PUBLIC "-//W3C//DTD SVG 1.1//EN" "http://www.w3.org/Graphics/SVG/1.1/DTD/svg11.dtd"><svg t="1554168172672" class="icon" style="" viewBox="0 0 1024 1024" version="1.1" xmlns="http://www.w3.org/2000/svg" p-id="4061" xmlns:xlink="http://www.w3.org/1999/xlink" width="128" height="128"><defs><style type="text/css"></style></defs><path d="M593.92 464.213333m-327.68 0a327.68 327.68 0 1 0 655.36 0 327.68 327.68 0 1 0-655.36 0Z" fill="#E9EAEB" p-id="4062"></path><path d="M211.626667 505.173333h122.88v382.293334h-122.88zM457.386667 436.906667h122.88v450.56h-122.88zM703.146667 286.72h122.88v600.746667h-122.88z" fill="#FFFFFF" p-id="4063"></path><path d="M334.506667 559.786667h122.88v327.68h-122.88zM580.266667 491.52h122.88v395.946667h-122.88z" fill="#A3D4FF" p-id="4064"></path><path d="M245.76 805.546667H129.706667v-27.306667h102.4l54.613333-68.266667h95.573333l40.96 54.613334h96.938667l109.226667-109.226667h106.496l40.96-68.266667H880.64v27.306667h-87.381333l-40.96 68.266667h-111.957334l-109.226666 109.226666h-121.514667l-40.96-54.613333h-68.266667z" fill="#3377ff" p-id="4065"></path><path d="M361.813333 273.066667h27.306667v81.92h-27.306667z" fill="#BCC0C4" p-id="4066"></path><path d="M334.506667 300.373333h81.92v27.306667h-81.92zM170.666667 300.373333h27.306666v81.92h-27.306666z" fill="#BCC0C4" p-id="4067"></path><path d="M143.36 327.68h81.92v27.306667H143.36zM279.893333 150.186667h27.306667v81.92h-27.306667z" fill="#BCC0C4" p-id="4068"></path><path d="M252.586667 177.493333h81.92v27.306667h-81.92z" fill="#BCC0C4" p-id="4069"></path><path d="M129.706667 873.813333h68.266666v27.306667H129.706667zM75.093333 873.813333h27.306667v27.306667H75.093333zM921.6 873.813333h27.306667v27.306667h-27.306667zM839.68 873.813333h54.613333v27.306667h-54.613333zM593.92 669.013333h-27.306667V450.56h-95.573333v109.226667h-27.306667V423.253333h150.186667zM593.92 901.12H457.386667v-27.306667h109.226666v-95.573333h27.306667z" fill="#3399ff" p-id="4070"></path><path d="M716.8 901.12H580.266667v-27.306667h109.226666V709.973333h27.306667zM716.8 628.053333h-27.306667v-122.88h-109.226666v-27.306666h136.533333zM471.04 901.12H334.506667v-27.306667h109.226666v-54.613333h27.306667zM471.04 737.28h-27.306667V573.44h-109.226666v-27.306667h136.533333z" fill="#3399ff" p-id="4071"></path><path d="M348.16 901.12H197.973333v-68.266667h27.306667v40.96h95.573333v-109.226666h27.306667zM225.28 750.933333h-27.306667V491.52h150.186667v191.146667h-27.306667V518.826667h-95.573333zM839.68 901.12H703.146667v-27.306667h109.226666V641.706667h27.306667zM839.68 559.786667h-27.306667V300.373333h-95.573333v191.146667h-27.306667V273.066667h150.186667z" fill="#2A5082" p-id="4072"></path></svg>