<?xml version="1.0" standalone="no"?><!DOCTYPE svg PUBLIC "-//W3C//DTD SVG 1.1//EN" "http://www.w3.org/Graphics/SVG/1.1/DTD/svg11.dtd"><svg t="1554178427378" class="icon" style="" viewBox="0 0 1178 1024" version="1.1" xmlns="http://www.w3.org/2000/svg" p-id="12428" xmlns:xlink="http://www.w3.org/1999/xlink" width="147.25" height="128"><defs><style type="text/css"></style></defs><path d="M434.526316 16.842105h390.736842a33.684211 33.684211 0 0 1 33.68421 33.684211v269.473684a33.684211 33.684211 0 0 1-33.68421 33.684211h-390.736842z" fill="#96CEFB" p-id="12429"></path><path d="M1094.736842 552.421053h-1010.526316a16.842105 16.842105 0 0 1 0-33.684211h1010.526316a16.842105 16.842105 0 0 1 0 33.684211z" fill="#1E88E5" p-id="12430"></path><path d="M589.473684 653.473684a16.842105 16.842105 0 0 1-16.842105-16.842105v-202.105263a16.842105 16.842105 0 0 1 33.68421 0v202.105263a16.842105 16.842105 0 0 1-16.842105 16.842105zM737.684211 754.526316a16.842105 16.842105 0 0 1-16.842106-16.842105v-202.105264a16.842105 16.842105 0 0 1 33.684211 0v202.105264a16.842105 16.842105 0 0 1-16.842105 16.842105zM441.263158 754.526316a16.842105 16.842105 0 0 1-16.842105-16.842105v-202.105264a16.842105 16.842105 0 0 1 33.68421 0v202.105264a16.842105 16.842105 0 0 1-16.842105 16.842105zM1088 693.894737a16.842105 16.842105 0 0 1-16.842105-16.842105v-134.736843a16.842105 16.842105 0 0 1 33.68421 0v134.736843a16.842105 16.842105 0 0 1-16.842105 16.842105zM90.947368 693.894737a16.842105 16.842105 0 0 1-16.842105-16.842105v-134.736843a16.842105 16.842105 0 0 1 33.684211 0v134.736843a16.842105 16.842105 0 0 1-16.842106 16.842105z" fill="#1E88E5" p-id="12431"></path><path d="M84.210526 663.578947h101.052632a33.684211 33.684211 0 0 1 33.68421 33.684211v202.105263a33.684211 33.684211 0 0 1-33.68421 33.684211h-101.052632zM1027.368421 663.578947h101.052632a33.684211 33.684211 0 0 1 33.68421 33.684211v202.105263a33.684211 33.684211 0 0 1-33.68421 33.684211h-101.052632z" fill="#96CEFB" p-id="12432"></path><path d="M353.684211 737.684211l161.68421 0 0 269.473684-161.68421 0 0-269.473684Z" fill="#96CEFB" p-id="12433"></path><path d="M730.947368 737.684211l161.684211 0 0 269.473684-161.684211 0 0-269.473684Z" fill="#96CEFB" p-id="12434"></path><path d="M407.578947 84.210526m-33.68421 0a33.684211 33.684211 0 1 0 67.368421 0 33.684211 33.684211 0 1 0-67.368421 0Z" fill="#4C9DFD" p-id="12435"></path><path d="M320 124.631579m-20.210526 0a20.210526 20.210526 0 1 0 40.421052 0 20.210526 20.210526 0 1 0-40.421052 0Z" fill="#1E88E5" p-id="12436"></path><path d="M407.578947 171.789474m-33.68421 0a33.684211 33.684211 0 1 0 67.368421 0 33.684211 33.684211 0 1 0-67.368421 0Z" fill="#4C9DFD" p-id="12437"></path><path d="M407.578947 259.368421m-33.68421 0a33.684211 33.684211 0 1 0 67.368421 0 33.684211 33.684211 0 1 0-67.368421 0Z" fill="#4C9DFD" p-id="12438"></path><path d="M680.892632 101.052632H478.315789a13.473684 13.473684 0 0 1 0-26.947369h202.576843a13.473684 13.473684 0 0 1 0 26.947369zM680.892632 188.631579H478.315789a13.473684 13.473684 0 0 1 0-26.947368h202.576843a13.473684 13.473684 0 0 1 0 26.947368zM680.892632 276.210526H478.315789a13.473684 13.473684 0 0 1 0-26.947368h202.576843a13.473684 13.473684 0 0 1 0 26.947368z" fill="#4C9DFD" p-id="12439"></path><path d="M825.263158 370.526316h-471.578947a50.526316 50.526316 0 0 1-50.526316-50.526316V207.427368a16.842105 16.842105 0 1 1 33.68421 0V320a16.842105 16.842105 0 0 0 16.842106 16.842105h471.578947a16.842105 16.842105 0 0 0 16.842105-16.842105v-269.473684a16.842105 16.842105 0 0 0-16.842105-16.842105h-471.578947A16.842105 16.842105 0 0 0 336.842105 50.526316a16.842105 16.842105 0 0 1-33.68421 0A50.526316 50.526316 0 0 1 353.684211 0h471.578947a50.526316 50.526316 0 0 1 50.526316 50.526316v269.473684a50.526316 50.526316 0 0 1-50.526316 50.526316zM1128.421053 949.894737h-134.736842a50.526316 50.526316 0 0 1-50.526316-50.526316v-202.105263a50.526316 50.526316 0 0 1 50.526316-50.526316h134.736842a50.526316 50.526316 0 0 1 50.526315 50.526316v202.105263a50.526316 50.526316 0 0 1-50.526315 50.526316z m-134.736842-269.473684a16.842105 16.842105 0 0 0-16.842106 16.842105v202.105263a16.842105 16.842105 0 0 0 16.842106 16.842105h134.736842a16.842105 16.842105 0 0 0 16.842105-16.842105v-202.105263a16.842105 16.842105 0 0 0-16.842105-16.842105zM185.263158 949.894737h-134.736842a50.526316 50.526316 0 0 1-50.526316-50.526316v-124.968421a16.842105 16.842105 0 0 1 33.684211 0v124.968421a16.842105 16.842105 0 0 0 16.842105 16.842105h134.736842a16.842105 16.842105 0 0 0 16.842105-16.842105v-202.105263a16.842105 16.842105 0 0 0-16.842105-16.842105h-134.736842a16.842105 16.842105 0 0 0-16.842105 16.842105 16.842105 16.842105 0 0 1-33.684211 0A50.526316 50.526316 0 0 1 50.526316 646.736842h134.736842a50.526316 50.526316 0 0 1 50.526316 50.526316v202.105263a50.526316 50.526316 0 0 1-50.526316 50.526316zM481.684211 1024h-161.684211a50.526316 50.526316 0 0 1-50.526316-50.526316v-202.105263a50.526316 50.526316 0 0 1 50.526316-50.526316h161.684211a50.526316 50.526316 0 0 1 50.526315 50.526316v202.105263a50.526316 50.526316 0 0 1-50.526315 50.526316z m-161.684211-269.473684a16.842105 16.842105 0 0 0-16.842105 16.842105v202.105263a16.842105 16.842105 0 0 0 16.842105 16.842105h161.684211a16.842105 16.842105 0 0 0 16.842105-16.842105v-202.105263a16.842105 16.842105 0 0 0-16.842105-16.842105zM858.947368 1024h-161.68421a50.526316 50.526316 0 0 1-50.526316-50.526316v-107.789473a16.842105 16.842105 0 0 1 33.684211 0v107.789473a16.842105 16.842105 0 0 0 16.842105 16.842105h161.68421a16.842105 16.842105 0 0 0 16.842106-16.842105v-202.105263a16.842105 16.842105 0 0 0-16.842106-16.842105h-161.68421a16.842105 16.842105 0 0 0-16.842105 16.842105 16.842105 16.842105 0 0 1-33.684211 0 50.526316 50.526316 0 0 1 50.526316-50.526316h161.68421a50.526316 50.526316 0 0 1 50.526316 50.526316v202.105263a50.526316 50.526316 0 0 1-50.526316 50.526316z" fill="#1E88E5" p-id="12440"></path></svg>