<?xml version="1.0" standalone="no"?><!DOCTYPE svg PUBLIC "-//W3C//DTD SVG 1.1//EN" "http://www.w3.org/Graphics/SVG/1.1/DTD/svg11.dtd"><svg t="1554178348871" class="icon" style="" viewBox="0 0 1037 1024" version="1.1" xmlns="http://www.w3.org/2000/svg" p-id="7700" xmlns:xlink="http://www.w3.org/1999/xlink" width="129.625" height="128"><defs><style type="text/css"></style></defs><path d="M512.095514 496.210512m-379.090288 0a379.090289 379.090289 0 1 0 758.180577 0 379.090289 379.090289 0 1 0-758.180577 0Z" fill="#E9EAEB" p-id="7701"></path><path d="M161.761341 751.437076l22.326265-22.326265 111.096694 111.096693-22.333394 22.326266zM509.557791 439.589335l22.326265-22.326265 74.905618 74.898489-22.326265 22.333394zM445.822434 468.038928l22.333394-22.326265L578.532549 556.089384 556.220541 578.429906zM417.294428 531.809927l22.326266-22.326265 74.905617 74.898489-22.326265 22.333394zM732.342838 180.80568l22.326265-22.333393 111.096693 111.096693-22.333393 22.326265zM705.390217 246.686697l22.333393-22.333394 72.325124 72.332252-22.326265 22.333394zM227.521174 724.413171l22.326265-22.326265 72.332252 72.332252-22.326265 22.326265z" fill="#2A5082" p-id="7702"></path><path d="M940.300735 295.61629l-38.707413 38.707413c-53.32071 53.32071-115.266829 52.465298-228.537696-3.136512-104.502889-51.253463-225.18733-89.747024-328.407101 13.472746L406.238222 406.320919c53.32071-53.32071 115.266829-52.465298 228.537696 3.136512C739.207523 460.568326 859.891964 498.990602 963.183019 395.628263l38.493561-38.636129z" fill="#FFFFFF" p-id="7703"></path><path d="M812.630426 476.179603c-64.868778 0-129.167282-25.377236-184.840376-52.679151-121.183432-59.593735-169.08653-47.404107-210.431466-6.130455l-22.312008-22.312009c58.3819-58.3819 127.527741-58.3819 246.643926 0 99.370414 48.829795 213.853115 85.541246 310.30087-10.621371l27.373199-27.444483-39.063836-39.063836-27.515767 27.515767c-58.3819 58.3819-127.527741 58.3819-246.643926 0-104.431605-51.253463-214.352106-85.541246-310.30087 10.478803l-22.312009-22.312008c110.276923-110.276923 237.09182-70.215106 346.584616-16.46669 121.183432 59.665019 169.157814 47.404107 210.431465 6.130456l49.89906-49.89906L1023.846019 356.992134l-49.89906 49.89906c-50.54062 50.968326-106.14243 69.288409-161.316533 69.288409z" fill="#337aff" p-id="7704"></path><path d="M692.943966 351.004246c-55.60181-113.270867-56.457222-175.216986-3.136513-228.537695l38.707414-38.707414L667.42416 22.383293l-38.636129 38.49356C524.855417 163.954055 563.491546 285.137487 614.816294 389.355238c55.60181 113.270867 56.457222 175.216986 3.065228 228.537696l61.518413 61.518413c103.291055-103.21977 64.797494-223.975496 13.544031-328.407101z" fill="#A3D4FF" p-id="7705"></path><path d="M690.591581 690.602993l-22.312008-22.312008c95.948764-95.948764 61.732266-205.869266 10.478803-310.30087-58.453185-119.116185-58.524469-188.262026 0-246.643926l27.515767-27.515768L667.42416 44.695301l-27.800905 27.373199c-96.305186 96.305186-59.451166 210.930456-10.621371 310.30087 58.453185 119.116185 58.524469 188.262026 0 246.643926l-22.312008-22.312008c41.273651-41.273651 53.534563-88.962896-6.130456-210.431466C550.0188 293.263905 506.250196 160.746258 617.5251 49.89906l49.89906-49.89906 83.402715 83.759137-49.89906 49.89906c-41.273651 41.273651-53.534563 88.891612 6.130456 210.431465 53.819701 109.421511 93.881518 236.236408-16.46669 346.513331z" fill="#337aff" p-id="7706"></path><path d="M617.881522 617.892934C564.560812 671.213644 502.614693 670.073094 389.415111 614.756422 284.912222 563.146537 164.156496 525.151967 60.936726 628.371737l-38.493561 38.636129 61.375844 61.375844 38.707414-38.707413c53.32071-53.32071 115.266829-52.465298 228.537696 3.136512 104.502889 51.253463 225.18733 89.747024 328.4071-13.472746z" fill="#A3D4FF" p-id="7707"></path><path d="M529.417617 760.675531c-63.300522 0-126.814897-24.806961-185.339367-53.605848-121.183432-59.593735-169.157814-47.404107-210.431465-6.130456l-49.89906 49.899061L0.059872 667.079151l49.89906-49.899061C160.80613 506.119039 293.323778 550.030212 396.543548 600.570832c121.183432 59.593735 169.08653 47.404107 210.431465 6.130456l22.312009 22.312008c-58.3819 58.3819-127.527741 58.3819-246.643927 0-99.370414-48.75851-213.853115-85.541246-310.30087 10.621372l-27.658336 27.373198 39.063836 39.063836L111.406061 678.627219c58.3819-58.3819 127.599025-58.3819 246.643926 0 104.502889 51.324748 214.352106 85.541246 310.30087-10.478803l22.312009 22.312009c-51.324748 51.396032-106.213714 70.215106-161.245249 70.215106z" fill="#3399ff" p-id="7708"></path><path d="M409.30345 634.430908c-55.530526-112.985729-56.385938-174.931848-3.065228-228.109989l-61.518412-61.518413c-103.21977 103.21977-64.797494 223.975496-13.472747 328.407101 55.60181 113.270867 56.457222 175.216986 3.136513 228.537695l-38.707414 38.707414 61.375844 61.375844 38.636129-38.49356C498.97919 859.903376 460.699482 739.218935 409.30345 634.430908z" fill="#FFFFFF" p-id="7709"></path><path d="M356.980722 1024l-83.687853-83.687852 49.89906-49.899061c41.273651-41.273651 53.463279-88.962896-6.130456-210.431465C263.313057 570.274974 223.25124 443.745214 333.528163 333.468291l22.312009 22.312008c-95.948764 95.948764-61.732266 205.869266-10.478803 310.300871 58.453185 119.116185 58.524469 188.262026 0 246.643926L318.130739 940.312148l39.063836 39.063835 27.515767-27.373198C480.87296 855.412461 443.947655 741.357466 395.11786 641.559346c-58.453185-119.116185-58.453185-188.262026 0-246.643927l22.312009 22.312009c-41.273651 41.273651-53.534563 88.962896 6.130456 210.431465 50.611904 103.005917 94.380508 235.238427-16.609259 346.584616z" fill="#3399ff" p-id="7710"></path><path d="M38.125727 204.015872a55.316672 55.245388 0 1 0 110.633345 0 55.316672 55.245388 0 1 0-110.633345 0Z" fill="#FFFFFF" p-id="7711"></path><path d="M93.442399 275.086391a71.284372 71.284372 0 1 1 71.284372-71.284372 71.284372 71.284372 0 0 1-71.284372 71.284372z m0-110.562061A39.491542 39.491542 0 1 0 132.791372 204.015872a39.562826 39.562826 0 0 0-39.348973-39.491542z" fill="#BCC0C4" p-id="7712"></path><path d="M879.495166 597.648173m-57.455203 0a57.455204 57.455204 0 1 0 114.910407 0 57.455204 57.455204 0 1 0-114.910407 0Z" fill="#FFFFFF" p-id="7713"></path><path d="M879.495166 670.857222A73.20905 73.20905 0 1 1 952.561647 597.648173a72.710059 72.710059 0 0 1-73.280334 73.209049z m0-114.910407a41.630073 41.630073 0 0 0 0 83.260146 41.630073 41.630073 0 1 0 0-83.260146z" fill="#BCC0C4" p-id="7714"></path><path d="M132.933941 448.877689m-47.404107 0a47.404107 47.404107 0 1 0 94.808214 0 47.404107 47.404107 0 1 0-94.808214 0Z" fill="#FFFFFF" p-id="7715"></path><path d="M132.791372 512.035642A63.229238 63.229238 0 1 1 196.163179 449.091542 63.229238 63.229238 0 0 1 132.791372 512.035642z m0-94.808214A31.578977 31.578977 0 1 0 164.584202 449.091542 31.650261 31.650261 0 0 0 132.791372 417.227428z" fill="#BCC0C4" p-id="7716"></path><path d="M334.953851 128.81086m-77.77125 0a77.77125 77.77125 0 1 0 155.542499 0 77.77125 77.77125 0 1 0-155.542499 0Z" fill="#FFFFFF" p-id="7717"></path><path d="M334.953851 222.40724a93.59638 93.59638 0 1 1 93.525095-93.59638A93.667664 93.667664 0 0 1 334.953851 222.40724z m0-155.542499a61.946119 61.946119 0 1 0 61.946119 61.946119 62.017403 62.017403 0 0 0-61.946119-61.946119z" fill="#BCC0C4" p-id="7718"></path></svg>